<svg xmlns="http://www.w3.org/2000/svg" width="18" height="18" viewBox="0 0 18 18"><path fill="#4758a9" d="M0 0h18v18H0z"/><path fill="#ffda44" d="M9 2l.3 1.1h1.2l-1 .7L10 5l-1-.7L8 5l.4-1.2-1-.7h1.3zM4 4l1.1.6.8-.9L5.8 5l1 .6-1.2.1-.1 1.2-.6-1-1.2.2.9-.9zM2 9l1.1-.4V7.4l.7 1L5 8l-.7 1 .7 1-1.1-.4-.7 1V9.2zm2 4.9l.6-1.1-.9-.9 1.2.2.5-1 .2 1.1 1.2.2-1 .6.1 1.2-.8-.9zm5 2l-.4-1.1H7.4l1-.7-.4-1.2 1 .7 1-.7-.4 1.2 1 .7H9.2zm4.8-2l-1-.6-.9.9.2-1.2-1-.6 1.1-.1.2-1.2.6 1L14 12l-.8.8zm2-5l-1 .4v1.2l-.8-1-1 .4.6-1-.7-1 1.1.4.8-1v1.3zm-2-4.9l-.5 1.1.9.8-1.2-.1-.6 1-.1-1.2-1.2-.1 1-.6-.2-1.2.9.9z"/></svg>